<svg width="24" height="24" viewBox="0 0 24 24" fill="none" xmlns="http://www.w3.org/2000/svg">
<mask id="mask0_614_93" style="mask-type:alpha" maskUnits="userSpaceOnUse" x="0" y="0" width="24" height="24">
<rect width="24" height="24" fill="#F9F9F9"/>
</mask>
<g mask="url(#mask0_614_93)">
<path d="M2 24V20H22V24H2ZM4 18V14.25L13.05 5.2L16.8 8.95L7.75 18H4ZM6 16H6.9L14 8.95L13.05 8L6 15.1V16ZM17.925 7.85L14.175 4.1L15.975 2.3C16.1583 2.1 16.3917 2.00417 16.675 2.0125C16.9583 2.02083 17.1917 2.11667 17.375 2.3L19.725 4.65C19.9083 4.83333 20 5.0625 20 5.3375C20 5.6125 19.9083 5.85 19.725 6.05L17.925 7.85Z" fill="#F9F9F9"/>
</g>
</svg>
